<?xml version="1.0" encoding="utf-8"?>
<!-- Generator: Adobe Illustrator 14.0.0, SVG Export Plug-In . SVG Version: 6.00 Build 43363)  -->
<!DOCTYPE svg PUBLIC "-//W3C//DTD SVG 1.1//EN" "http://www.w3.org/Graphics/SVG/1.1/DTD/svg11.dtd">
<svg version="1.1" id="Layer_1" xmlns="http://www.w3.org/2000/svg" xmlns:xlink="http://www.w3.org/1999/xlink" x="0px" y="0px"
	 width="158.434px" height="28.459px" viewBox="0 0 158.434 28.459" enable-background="new 0 0 158.434 28.459"
	 xml:space="preserve">
<path fill="#FFFFFF" d="M126.279,17.969c0.377,0,0.692,0.128,0.944,0.381c0.252,0.254,0.378,0.571,0.378,0.952
	c0,0.382-0.126,0.7-0.378,0.952c-0.252,0.255-0.567,0.383-0.944,0.383s-0.692-0.128-0.943-0.383
	c-0.254-0.252-0.379-0.57-0.379-0.952c0-0.381,0.125-0.698,0.379-0.952C125.587,18.097,125.902,17.969,126.279,17.969"/>
<path fill="#FFFFFF" d="M12.675,11.317h-5.84l-2.958,7.687c-0.207,0.553-0.309,0.895-0.309,1.023c0,0.303,0.219,0.455,0.66,0.455
	v0.207H1.272v-0.207c0.396,0,0.728-0.1,0.999-0.297c0.27-0.198,0.567-0.712,0.89-1.54L10.326,0.03h0.36l7.073,17.976
	c0,0.092,0.181,0.528,0.541,1.309c0.363,0.777,0.912,1.168,1.653,1.168v0.207h-4.62v-0.207c0.421,0,0.632-0.17,0.632-0.512
	c0-0.229-0.103-0.598-0.31-1.104l-0.093-0.179c-0.019-0.094-0.032-0.139-0.041-0.139L12.675,11.317z M7.051,10.757h5.373
	L9.724,3.815L7.051,10.757z"/>
<path fill="#FFFFFF" d="M21.357,0.56V0.354h5.616c1.424,0,2.453,0.033,3.091,0.097c0.634,0.063,1.287,0.279,1.954,0.643
	c0.666,0.364,1.17,0.857,1.511,1.479c0.34,0.623,0.511,1.385,0.511,2.286c0,1.032-0.303,2.016-0.91,2.95
	c-0.605,0.936-1.461,1.726-2.564,2.37l1.398,2.209c0.303,0.553,1.112,1.763,2.427,3.633c1.313,1.868,2.328,3.005,3.041,3.411
	c0.716,0.407,1.409,0.609,2.08,0.609c0.662,0,1.422-0.255,2.28-0.766l0.081,0.274c-1.072,0.898-2.467,1.346-4.182,1.346
	c-1.145,0-2.128-0.348-2.95-1.045c-0.821-0.696-2.256-2.609-4.301-5.742l-0.027-0.055l-1.992-3.148l-1.762,0.056h-1.601v7.771
	c0,0.625,0.08,1.073,0.241,1.345c0.16,0.271,0.549,0.405,1.166,0.405v0.207h-5.108v-0.207c0.627-0.026,1.018-0.165,1.173-0.412
	c0.156-0.248,0.232-0.756,0.232-1.519V2.396c0-0.524-0.066-0.959-0.198-1.304C22.431,0.747,22.028,0.57,21.357,0.56 M25.058,0.914
	v9.519h2.072c1.631,0,2.843-0.395,3.631-1.185c0.789-0.789,1.184-1.827,1.184-3.113c0-1.249-0.388-2.431-1.164-3.547
	s-2.141-1.674-4.096-1.674H25.058z"/>
<path fill="#FFFFFF" d="M51.738,20.669c0.009,0.027,0.145,0.13,0.403,0.305l2.085,1.52c1.14,0.828,2.195,1.501,3.168,2.02
	c0.974,0.518,1.945,0.918,2.914,1.203c0.968,0.283,1.932,0.426,2.893,0.426c0.368,0,0.883-0.047,1.547-0.14l0.027,0.168
	c-0.566,0.277-1.238,0.51-2.018,0.695c-0.781,0.185-1.368,0.277-1.762,0.277c-1.436,0-3.315-0.542-5.639-1.627
	c-2.322-1.085-4.51-2.576-6.563-4.474c-2.967,0-5.278-0.963-6.931-2.89s-2.48-4.096-2.48-6.508c0-1.839,0.427-3.657,1.283-5.455
	c0.855-1.797,2.122-3.279,3.802-4.443c1.679-1.164,3.68-1.746,6-1.746c2.786,0,5.058,0.876,6.818,2.627
	c1.762,1.752,2.641,3.931,2.641,6.536c0,2.607-0.695,5.008-2.088,7.202C56.447,18.56,54.416,19.995,51.738,20.669 M50.396,19.952
	c1.36,0,2.702-0.376,4.027-1.127s2.368-1.787,3.128-3.104c0.761-1.318,1.143-2.673,1.143-4.065c0-2.019-0.531-3.846-1.592-5.482
	c-1.061-1.637-2.406-2.893-4.036-3.769c-1.628-0.875-3.104-1.313-4.429-1.313c-1.961,0-3.74,0.761-5.338,2.282
	c-1.597,1.521-2.396,3.41-2.396,5.668c0,2.868,0.974,5.403,2.919,7.606C45.77,18.851,47.959,19.952,50.396,19.952"/>
<path fill="#FFFFFF" d="M79.446,20.688h-3.759v-3.124c-1.908,2.182-4.186,3.272-6.83,3.272c-1.962,0-3.518-0.567-4.67-1.7
	c-1.153-1.132-1.727-2.697-1.727-4.695V2.259c0-0.736-0.085-1.203-0.259-1.402c-0.172-0.197-0.572-0.297-1.205-0.297V0.354h5.279
	V0.56c-0.555,0-0.949,0.091-1.177,0.271c-0.228,0.179-0.344,0.604-0.344,1.273v11.15c0,2.334,0.535,3.999,1.599,4.997
	c1.065,0.997,2.279,1.495,3.639,1.495c2.139,0,4.038-0.973,5.695-2.917V3.049c0-1.208-0.104-1.924-0.308-2.149
	c-0.206-0.227-0.529-0.34-0.969-0.34h-0.186V0.354h5.222V0.56c-0.645,0.037-1.05,0.148-1.214,0.332
	c-0.167,0.184-0.251,0.533-0.251,1.049v16.556c0,0.652,0.032,1.081,0.095,1.282c0.064,0.203,0.191,0.37,0.383,0.504
	c0.194,0.134,0.523,0.199,0.987,0.199V20.688z"/>
<path fill="#FFFFFF" d="M86.979,0.354V0.56c-0.262-0.027-0.551,0.015-0.869,0.125s-0.508,0.271-0.566,0.482
	c-0.057,0.212-0.086,0.713-0.086,1.504v15.604c0,0.846,0.033,1.363,0.102,1.553c0.067,0.188,0.197,0.344,0.389,0.468
	c0.193,0.125,0.537,0.187,1.031,0.187v0.206H81.67v-0.206c0.667,0,1.084-0.132,1.247-0.394c0.163-0.261,0.244-0.856,0.244-1.787
	V2.85c0-0.966-0.091-1.598-0.271-1.896C82.71,0.655,82.302,0.524,81.67,0.56V0.354H86.979z"/>
<path fill="#FFFFFF" d="M97.777,21.043h-0.255l-7.06-17.941c-0.5-1.262-0.911-2-1.232-2.217c-0.322-0.216-0.654-0.325-0.994-0.325
	V0.354h4.564V0.56c-0.402-0.026-0.602,0.134-0.602,0.483c0,0.138,0.026,0.285,0.079,0.44l6.162,15.659l6.082-15.645
	c0.08-0.211,0.122-0.381,0.122-0.511c0-0.312-0.238-0.454-0.711-0.428V0.354h2.982V0.56c-0.207,0-0.424,0.03-0.655,0.09
	c-0.229,0.061-0.466,0.297-0.71,0.711c-0.241,0.415-0.366,0.637-0.377,0.664L97.777,21.043z"/>
<path fill="#FFFFFF" d="M115.846,0c2.775,0,5.047,0.871,6.813,2.613c1.764,1.742,2.646,3.916,2.646,6.522
	c0,3.354-1.021,6.178-3.064,8.47c-2.043,2.291-4.752,3.437-8.129,3.437c-2.74,0-4.984-0.924-6.732-2.771
	c-1.746-1.85-2.619-4.066-2.619-6.654c0-1.746,0.421-3.539,1.263-5.378c0.843-1.839,2.108-3.339,3.802-4.498
	C111.518,0.58,113.524,0,115.846,0 M115.772,19.952c1.36,0,2.703-0.376,4.026-1.129c1.328-0.753,2.371-1.788,3.13-3.108
	c0.762-1.32,1.141-2.678,1.141-4.071c0-1.977-0.512-3.772-1.536-5.389c-1.025-1.614-2.354-2.879-3.988-3.793
	c-1.633-0.914-3.145-1.371-4.531-1.371c-1.961,0-3.739,0.762-5.337,2.284c-1.597,1.524-2.397,3.415-2.397,5.679
	c0,2.891,0.977,5.429,2.928,7.616C111.156,18.858,113.348,19.952,115.772,19.952"/>
<path fill="#FFFFFF" d="M129.514,0.575V0.354h5.649c2.008,0,3.467,0.23,4.378,0.691c0.908,0.463,1.574,1.037,1.99,1.727
	c0.418,0.687,0.625,1.594,0.625,2.721c0,1.727-0.578,3.025-1.74,3.892c-1.157,0.869-2.73,1.283-4.715,1.248V10.41
	c1.259,0,2.283-0.394,3.068-1.183c0.789-0.791,1.184-1.828,1.184-3.114c0-1-0.193-1.889-0.571-2.665
	c-0.38-0.774-0.912-1.366-1.601-1.77c-0.688-0.404-1.738-0.605-3.147-0.605h-1.407v17.357c0,0.981,0.104,1.566,0.314,1.755
	c0.208,0.188,0.605,0.282,1.191,0.282v0.221h-5.219v-0.221c0.932,0,1.399-0.437,1.399-1.309V2.353c0-0.716-0.091-1.191-0.269-1.425
	C130.464,0.692,130.088,0.575,129.514,0.575"/>
<path fill="#FFFFFF" d="M158.434,0.354l-0.883,2.354h-0.21c0.032-0.145,0.052-0.339,0.052-0.584c0-0.207-0.072-0.34-0.217-0.398
	c-0.143-0.059-0.373-0.088-0.686-0.088h-5.037v16.834c0,0.692,0.051,1.167,0.156,1.423c0.104,0.254,0.245,0.413,0.426,0.479
	c0.183,0.066,0.474,0.1,0.877,0.1v0.214h-5.16v-0.214c0.647-0.044,1.051-0.174,1.216-0.389c0.161-0.213,0.245-0.656,0.245-1.334
	V1.639h-4.776c-0.481,0-0.797,0.029-0.944,0.088c-0.146,0.059-0.219,0.206-0.219,0.44c0,0.118,0.033,0.298,0.104,0.542h-0.207
	l-0.939-2.354h0.208c0.156,0.302,0.313,0.484,0.466,0.548c0.15,0.063,0.479,0.094,0.983,0.094h12.76
	c0.503,0,0.868-0.031,1.089-0.094c0.221-0.063,0.385-0.246,0.49-0.548H158.434z"/>
</svg>
