<?xml version="1.0" encoding="utf-8"?>
<!-- Generator: Adobe Illustrator 14.0.0, SVG Export Plug-In . SVG Version: 6.00 Build 43363)  -->
<!DOCTYPE svg PUBLIC "-//W3C//DTD SVG 1.1//EN" "http://www.w3.org/Graphics/SVG/1.1/DTD/svg11.dtd">
<svg version="1.1" id="Layer_1" xmlns="http://www.w3.org/2000/svg" xmlns:xlink="http://www.w3.org/1999/xlink" x="0px" y="0px"
	 width="595.28px" height="841.89px" viewBox="0 0 595.28 841.89" enable-background="new 0 0 595.28 841.89" xml:space="preserve">
<path fill="#007AFF" d="M-406.611,222.201v-32.37h-32.338v32.339h-108.24v-32.339h-32.338v32.348
	c-23,0.198-41.586,18.896-41.586,41.943V435.43c0,23.168,18.785,41.953,41.953,41.953h171.309c23.168,0,41.951-18.785,41.951-41.953
	V264.122C-365.9,241.368-384.02,222.858-406.611,222.201z M-398.238,438.926H-587.9V284.225h189.662V438.926z"/>
<g>
	<rect x="-565.527" y="295.831" fill="#007AFF" width="32.338" height="32.339"/>
	<rect x="-565.527" y="345.331" fill="#007AFF" width="32.338" height="32.339"/>
	<rect x="-565.527" y="394.831" fill="#007AFF" width="32.338" height="32.339"/>
</g>
<g>
	<rect x="-509.35" y="295.831" fill="#007AFF" width="32.34" height="32.339"/>
	<rect x="-509.35" y="345.331" fill="#007AFF" width="32.34" height="32.339"/>
	<rect x="-509.35" y="394.831" fill="#007AFF" width="32.34" height="32.339"/>
</g>
<g>
	<rect x="-453.17" y="295.831" fill="#007AFF" width="32.34" height="32.339"/>
	<rect x="-453.17" y="345.331" fill="#007AFF" width="32.34" height="32.339"/>
	<rect x="-453.17" y="394.831" fill="#007AFF" width="32.34" height="32.339"/>
</g>
<path fill="#007AFF" d="M393.389,222.201v-32.37h-32.338v32.339h-108.24v-32.339h-32.338v32.348
	c-23,0.198-41.586,18.896-41.586,41.943V435.43c0,23.168,18.785,41.953,41.953,41.953h171.309c23.168,0,41.951-18.785,41.951-41.953
	V264.122C434.1,241.368,415.98,222.858,393.389,222.201z M401.762,438.926H212.1V284.225h189.662V438.926z"/>
</svg>
