<?xml version="1.0" encoding="utf-8"?>
<!-- Generator: Adobe Illustrator 23.1.0, SVG Export Plug-In . SVG Version: 6.00 Build 0)  -->
<svg version="1.1" id="Layer_1" xmlns="http://www.w3.org/2000/svg" xmlns:xlink="http://www.w3.org/1999/xlink" x="0px" y="0px"
	 viewBox="0 0 310 340.6" style="enable-background:new 0 0 310 340.6;" xml:space="preserve">
<style type="text/css">
	.st0{fill:#007AFF;}
	.st1{fill:#FFFFFF;}
	.st2{fill:none;stroke:#1A73BA;stroke-width:6;stroke-miterlimit:10;}
	.st3{fill:#1A73BA;stroke:#FFFFFF;stroke-width:11;stroke-miterlimit:10;}
	.st4{stroke:#FFFFFF;stroke-miterlimit:10;}
</style>
<path class="st0" d="M1570.3,183.3v-33.7h-33.7v33.7h-112.8v-33.7h-33.7v33.7c-24,0.2-43.3,19.7-43.3,43.7v178.5
	c0,24.1,19.6,43.7,43.7,43.7H1569c24.1,0,43.7-19.6,43.7-43.7V227C1612.7,203.3,1593.8,184,1570.3,183.3z M1582.5,412.6H1377V223.1
	h205.5V412.6z"/>
<path class="st0" d="M786.5,32.4V0h-32.3v32.3H645.9V0h-32.3v32.3c-23,0.2-41.6,18.9-41.6,41.9v171.3c0,23.2,18.8,42,42,42h171.3
	c23.2,0,42-18.8,42-42V74.3C827.2,51.5,809.1,33,786.5,32.4z M794.8,249.1H605.2V94.4h189.7V249.1L794.8,249.1z"/>
<g>
	<rect x="627.5" y="106" class="st0" width="32.3" height="32.3"/>
	<rect x="627.5" y="155.5" class="st0" width="32.3" height="32.3"/>
	<rect x="627.5" y="205" class="st0" width="32.3" height="32.3"/>
</g>
<g>
	<rect x="683.7" y="106" class="st0" width="32.3" height="32.3"/>
	<rect x="683.7" y="155.5" class="st0" width="32.3" height="32.3"/>
	<rect x="683.7" y="205" class="st0" width="32.3" height="32.3"/>
</g>
<g>
	<rect x="739.9" y="106" class="st0" width="32.3" height="32.3"/>
	<rect x="739.9" y="155.5" class="st0" width="32.3" height="32.3"/>
	<rect x="739.9" y="205" class="st0" width="32.3" height="32.3"/>
</g>
<path class="st0" d="M544.8-438.7c0,3-4,5.4-8.9,5.4l0,0c-4.9,0-8.9-2.4-8.9-5.4v-32c0-3,4-5.4,8.9-5.4l0,0c4.9,0,8.9,2.4,8.9,5.4
	V-438.7z"/>
<path class="st0" d="M781.5-438.7c0,3-4,5.4-8.9,5.4l0,0c-4.9,0-8.9-2.4-8.9-5.4v-32c0-3,4-5.4,8.9-5.4l0,0c4.9,0,8.9,2.4,8.9,5.4
	V-438.7z"/>
<g>
	<path class="st0" d="M535.8-433.4c3.8,0,6.6-1.9,6.6-3.6v-17.7h-13.2v17.7C529.2-435.3,532-433.4,535.8-433.4z"/>
	<path class="st0" d="M795-454.7h-11.1v17.8c0,4.7-4.9,8.4-11.3,8.4c-6.3,0-11.3-3.7-11.3-8.4v-17.8H547v17.7
		c0,4.7-4.9,8.4-11.3,8.4c-6.3,0-11.3-3.7-11.3-8.4v-17.7h-11.1c-7.7,0-14,6.4-14,14.4v289.5c0,7.9,6.3,14.4,14,14.4H795
		c7.7,0,14-6.4,14-14.4v-289.5C809-448.3,802.7-454.7,795-454.7z M800.9-169.5c0,8.3-6.5,15.1-14.6,15.1H522.2
		c-8,0-14.6-6.8-14.6-15.1v-236c0-8.3,6.5-15.1,14.6-15.1h264.1c8,0,14.6,6.8,14.6,15.1V-169.5L800.9-169.5z"/>
	<path class="st0" d="M772.7-433.3c3.8,0,6.6-1.9,6.6-3.6v-17.8h-13.2v17.8C766.1-435.2,768.9-433.3,772.7-433.3z"/>
</g>
<g>
	<path class="st0" d="M1339.5-164.3c3.2,0,5.7-1.6,5.7-3v-14.8h-11.3v14.8C1333.9-165.9,1336.3-164.3,1339.5-164.3z"/>
	<path class="st0" d="M1562.2-182.2h-9.5v14.8c0,3.9-4.2,7-9.7,7c-5.4,0-9.7-3.1-9.7-7v-14.8h-184.2v14.8c0,3.9-4.2,7-9.7,7
		c-5.4,0-9.7-3.1-9.7-7v-14.8h-9.5c-6.6,0-12,5.4-12,12V71.6c0,6.6,5.4,12,12,12h241.9c6.6,0,12-5.4,12-12v-241.7
		C1574.2-176.8,1568.9-182.2,1562.2-182.2z"/>
	<path class="st0" d="M1543-164.3c3.2,0,5.7-1.6,5.7-3v-14.8h-11.3v14.8C1537.4-165.9,1539.8-164.3,1543-164.3z"/>
</g>
<path class="st0" d="M1347.2-167.4c0,2.8-3.4,5-7.7,5l0,0c-4.2,0-7.7-2.2-7.7-5v-29.7c0-2.8,3.4-5,7.7-5l0,0c4.2,0,7.7,2.2,7.7,5
	V-167.4z"/>
<path class="st0" d="M1550.7-167.4c0,2.8-3.4,5-7.7,5l0,0c-4.2,0-7.7-2.2-7.7-5v-29.7c0-2.8,3.4-5,7.7-5l0,0c4.2,0,7.7,2.2,7.7,5
	V-167.4z"/>
<path class="st1" d="M1559.9,55.3c0,6.8-5.3,12.3-11.8,12.3h-214.4c-6.5,0-11.8-5.5-11.8-12.3v-192.2c0-6.8,5.3-12.3,11.8-12.3
	h214.4c6.5,0,11.8,5.5,11.8,12.3L1559.9,55.3L1559.9,55.3z"/>
<path class="st0" d="M1326.3,539.1c0,6.6-5.4,12-12,12H1141c-6.6,0-12-5.4-12-12V416.2c0-6.6,5.4-12,12-12h173.3c6.6,0,12,5.4,12,12
	V539.1L1326.3,539.1z"/>
<path class="st0" d="M1723.8-61c0,3-4,5.4-8.9,5.4l0,0c-4.9,0-8.9-2.4-8.9-5.4v-32c0-3,4-5.4,8.9-5.4l0,0c4.9,0,8.9,2.4,8.9,5.4V-61
	z"/>
<path class="st0" d="M1960.6-61c0,3-4,5.4-8.9,5.4l0,0c-4.9,0-8.9-2.4-8.9-5.4v-32c0-3,4-5.4,8.9-5.4l0,0c4.9,0,8.9,2.4,8.9,5.4V-61
	z"/>
<g>
	<path class="st0" d="M1714.8-55.7c3.8,0,6.6-1.9,6.6-3.6V-77h-13.2v17.7C1708.2-57.6,1711-55.7,1714.8-55.7z"/>
	<path class="st0" d="M1974-77h-11.1v17.8c0,4.7-4.9,8.4-11.3,8.4c-6.3,0-11.3-3.7-11.3-8.4V-77H1726v17.7c0,4.7-4.9,8.4-11.3,8.4
		c-6.3,0-11.3-3.7-11.3-8.4V-77h-11.1c-7.7,0-14,6.4-14,14.4v289.5c0,7.9,6.3,14.4,14,14.4H1974c7.7,0,14-6.4,14-14.4V-62.6
		C1988-70.6,1981.7-77,1974-77z M1979.9,208.2c0,8.3-6.5,15.1-14.6,15.1h-264.1c-8,0-14.6-6.8-14.6-15.1v-236
		c0-8.3,6.5-15.1,14.6-15.1h264.1c8,0,14.6,6.8,14.6,15.1V208.2z"/>
	<path class="st0" d="M1951.7-55.6c3.8,0,6.6-1.9,6.6-3.6V-77h-13.2v17.8C1945.1-57.5,1947.9-55.6,1951.7-55.6z"/>
</g>
<g>
	<path class="st2" d="M256.3,35.5v11.2c0,3.8-6.6,6.8-14.7,6.8c-8.1,0-14.7-3.1-14.7-6.8V35.5H83.5v11.2c0,3.8-6.6,6.8-14.7,6.8
		s-14.7-3.1-14.7-6.8V35.5c-24.8,0-45,20.2-45,45v202c0,24.9,20.2,45,45,45h202c24.9,0,45-20.1,45-45v-202
		C301.2,55.7,281.1,35.5,256.3,35.5z"/>
	<path class="st3" d="M241.6,48.6c5.3,0,9.7-2,9.7-4.5V17.5c0-2.5-4.3-4.5-9.7-4.5c-5.3,0-9.7,2-9.7,4.5v26.7
		C232,46.6,236.3,48.6,241.6,48.6z"/>
	<path class="st3" d="M68.9,48.6c5.3,0,9.7-2,9.7-4.5V17.5c0-2.5-4.3-4.5-9.7-4.5c-5.3,0-9.7,2-9.7,4.5v26.7
		C59.2,46.6,63.5,48.6,68.9,48.6z"/>
</g>
<g>
	<path class="st4" d="M1138.7,27v11.9c0,4-7,7.3-15.6,7.3c-8.6,0-15.6-3.3-15.6-7.3V27H955v11.9c0,4-7,7.3-15.6,7.3
		c-8.6,0-15.6-3.3-15.6-7.3V27C897.4,27,876,48.4,876,74.8v214.7c0,26.4,21.4,47.9,47.9,47.9h214.7c26.4,0,47.9-21.4,47.9-47.9V74.8
		C1186.4,48.4,1165.1,27,1138.7,27z"/>
	<path class="st4" d="M1123.1,40.9c5.7,0,10.3-2.1,10.3-4.8V7.8c0-2.6-4.6-4.8-10.3-4.8c-5.7,0-10.3,2.1-10.3,4.8v28.3
		C1112.8,38.8,1117.4,40.9,1123.1,40.9z"/>
	<path class="st4" d="M939.4,40.9c5.7,0,10.3-2.1,10.3-4.8V7.8c0-2.6-4.6-4.8-10.3-4.8c-5.7,0-10.3,2.1-10.3,4.8v28.3
		C929.1,38.8,933.7,40.9,939.4,40.9z"/>
</g>
<g>
	<path class="st0" d="M1143.7-351.2v11.9c0,4-7,7.3-15.6,7.3c-8.6,0-15.6-3.3-15.6-7.3v-11.9H960v11.9c0,4-7,7.3-15.6,7.3
		c-8.6,0-15.6-3.3-15.6-7.3v-11.9c-26.4,0-47.8,21.4-47.8,47.9v214.7c0,26.4,21.4,47.9,47.9,47.9h214.7c26.4,0,47.9-21.4,47.9-47.9
		v-214.7C1191.4-329.8,1170.1-351.2,1143.7-351.2z"/>
	<path class="st0" d="M1128.1-337.3c5.7,0,10.3-2.1,10.3-4.8v-28.3c0-2.6-4.6-4.8-10.3-4.8c-5.7,0-10.3,2.1-10.3,4.8v28.3
		C1117.8-339.4,1122.4-337.3,1128.1-337.3z"/>
	<path class="st0" d="M944.4-337.3c5.7,0,10.3-2.1,10.3-4.8v-28.3c0-2.6-4.6-4.8-10.3-4.8s-10.3,2.1-10.3,4.8v28.3
		C934.1-339.4,938.7-337.3,944.4-337.3z"/>
</g>
<image style="overflow:visible;enable-background:new    ;" width="501" height="181" xlink:href="3CF65DF2.jpeg"  transform="matrix(0.7458 0 0 0.7458 276.8265 437.04)">
</image>
<g>
	<g>
		<path class="st0" d="M1975.1,311.9c5.7,0,10.3-2.1,10.3-4.8v-28.3c0-2.6-4.6-4.8-10.3-4.8c-5.7,0-10.3,2.1-10.3,4.8v28.3
			C1964.8,309.8,1969.4,311.9,1975.1,311.9z"/>
		<path class="st0" d="M1791.4,311.9c5.7,0,10.3-2.1,10.3-4.8v-28.3c0-2.6-4.6-4.8-10.3-4.8s-10.3,2.1-10.3,4.8v28.3
			C1781.1,309.8,1785.7,311.9,1791.4,311.9z"/>
	</g>
	<path class="st0" d="M1990.7,298v11.9c0,4-7,7.3-15.6,7.3c-8.6,0-15.6-3.3-15.6-7.3V298H1807v11.9c0,4-7,7.3-15.6,7.3
		s-15.6-3.3-15.6-7.3V298c-26.4,0-47.8,21.4-47.8,47.9v214.7c0,26.4,21.4,47.9,47.9,47.9h214.7c26.4,0,47.9-21.4,47.9-47.9V345.8
		C2038.4,319.4,2017.1,298,1990.7,298z M2007.4,443.5c0,6-5.5,10.9-12.2,10.9h-223.4c-6.8,0-12.2-4.9-12.2-10.9V350
		c0-6,5.5-10.9,12.2-10.9h223.4c6.8,0,12.2,4.9,12.2,10.9L2007.4,443.5L2007.4,443.5z"/>
</g>
<image style="overflow:visible;" width="257" height="112" xlink:href="3CF65DF0.jpg"  transform="matrix(0.6001 0 0 0.6001 372.6896 460.9794)">
</image>
</svg>
