<?xml version="1.0" encoding="utf-8"?>
<!-- Generator: Adobe Illustrator 23.1.0, SVG Export Plug-In . SVG Version: 6.00 Build 0)  -->
<svg version="1.1" id="Layer_1" xmlns="http://www.w3.org/2000/svg" xmlns:xlink="http://www.w3.org/1999/xlink" x="0px" y="0px"
	 viewBox="0 0 310 340.6" style="enable-background:new 0 0 310 340.6;" xml:space="preserve">
<style type="text/css">
	.st0{fill:#007AFF;}
	.st1{fill:#FFFFFF;}
	.st2{fill:#231F20;}
	.st3{fill:none;stroke:#1C75C0;stroke-width:11;}
	.st4{fill:#1C75C0;}
</style>
<path class="st0" d="M2549.8-437.7v-33.7h-33.7v33.7h-112.8v-33.7h-33.7v33.7c-24,0.2-43.3,19.7-43.3,43.7v178.5
	c0,24.1,19.6,43.7,43.7,43.7h178.5c24.1,0,43.7-19.6,43.7-43.7V-394C2592.2-417.7,2573.3-437,2549.8-437.7z M2562-208.4h-205.5
	v-189.5H2562L2562-208.4L2562-208.4z"/>
<path class="st0" d="M1538.9-497.2v-32.4h-32.3v32.3h-108.2v-32.3H1366v32.3c-23,0.2-41.6,18.9-41.6,41.9V-284c0,23.2,18.8,42,42,42
	h171.3c23.2,0,42-18.8,42-42v-171.3C1579.6-478,1561.5-496.5,1538.9-497.2z M1547.3-280.5h-189.7v-154.7h189.7V-280.5z"/>
<g>
	<rect x="1380" y="-423.6" class="st0" width="32.3" height="32.3"/>
	<rect x="1380" y="-374.1" class="st0" width="32.3" height="32.3"/>
	<rect x="1380" y="-324.6" class="st0" width="32.3" height="32.3"/>
</g>
<g>
	<rect x="1436.1" y="-423.6" class="st0" width="32.3" height="32.3"/>
	<rect x="1436.1" y="-374.1" class="st0" width="32.3" height="32.3"/>
	<rect x="1436.1" y="-324.6" class="st0" width="32.3" height="32.3"/>
</g>
<g>
	<rect x="1492.3" y="-423.6" class="st0" width="32.3" height="32.3"/>
	<rect x="1492.3" y="-374.1" class="st0" width="32.3" height="32.3"/>
	<rect x="1492.3" y="-324.6" class="st0" width="32.3" height="32.3"/>
</g>
<path class="st0" d="M1524.3-1059.7c0,3-4,5.4-8.9,5.4l0,0c-4.9,0-8.9-2.4-8.9-5.4v-32c0-3,4-5.4,8.9-5.4l0,0c4.9,0,8.9,2.4,8.9,5.4
	V-1059.7z"/>
<path class="st0" d="M1761-1059.7c0,3-4,5.4-8.9,5.4l0,0c-4.9,0-8.9-2.4-8.9-5.4v-32c0-3,4-5.4,8.9-5.4l0,0c4.9,0,8.9,2.4,8.9,5.4
	V-1059.7z"/>
<g>
	<path class="st0" d="M1515.3-1054.3c3.8,0,6.6-1.9,6.6-3.6v-17.7h-13.2v17.7C1508.7-1056.3,1511.5-1054.3,1515.3-1054.3z"/>
	<path class="st0" d="M1774.5-1075.7h-11.1v17.8c0,4.7-4.9,8.4-11.3,8.4c-6.3,0-11.3-3.7-11.3-8.4v-17.8h-214.4v17.7
		c0,4.7-4.9,8.4-11.3,8.4c-6.3,0-11.3-3.7-11.3-8.4v-17.7h-11.1c-7.7,0-14,6.4-14,14.4v289.5c0,7.9,6.3,14.4,14,14.4h281.6
		c7.7,0,14-6.4,14-14.4v-289.5C1788.5-1069.3,1782.2-1075.7,1774.5-1075.7z M1780.3-790.5c0,8.3-6.5,15.1-14.6,15.1h-264.1
		c-8,0-14.6-6.8-14.6-15.1v-236c0-8.3,6.5-15.1,14.6-15.1h264.1c8,0,14.6,6.8,14.6,15.1V-790.5z"/>
	<path class="st0" d="M1752.2-1054.3c3.8,0,6.6-1.9,6.6-3.6v-17.8h-13.2v17.8C1745.6-1056.2,1748.4-1054.3,1752.2-1054.3z"/>
</g>
<g>
	<path class="st0" d="M2319-785.3c3.2,0,5.7-1.6,5.7-3v-14.8h-11.3v14.8C2313.4-786.9,2315.8-785.3,2319-785.3z"/>
	<path class="st0" d="M2541.7-803.2h-9.5v14.8c0,3.9-4.2,7-9.7,7s-9.7-3.1-9.7-7v-14.8h-184.2v14.8c0,3.9-4.2,7-9.7,7
		s-9.7-3.1-9.7-7v-14.8h-9.5c-6.6,0-12,5.4-12,12v241.7c0,6.6,5.4,12,12,12h241.9c6.6,0,12-5.4,12-12v-241.7
		C2553.7-797.8,2548.4-803.2,2541.7-803.2z"/>
	<path class="st0" d="M2522.5-785.3c3.2,0,5.7-1.6,5.7-3v-14.8h-11.3v14.8C2516.9-786.9,2519.3-785.3,2522.5-785.3z"/>
</g>
<path class="st0" d="M2326.7-788.3c0,2.8-3.4,5-7.7,5l0,0c-4.2,0-7.7-2.2-7.7-5V-818c0-2.8,3.4-5,7.7-5l0,0c4.2,0,7.7,2.2,7.7,5
	V-788.3z"/>
<path class="st0" d="M2530.2-788.3c0,2.8-3.4,5-7.7,5l0,0c-4.2,0-7.7-2.2-7.7-5V-818c0-2.8,3.4-5,7.7-5l0,0c4.2,0,7.7,2.2,7.7,5
	V-788.3z"/>
<path class="st1" d="M2539.4-565.7c0,6.8-5.3,12.3-11.8,12.3h-214.4c-6.5,0-11.8-5.5-11.8-12.3v-192.2c0-6.8,5.3-12.3,11.8-12.3
	h214.4c6.5,0,11.8,5.5,11.8,12.3V-565.7z"/>
<path class="st0" d="M2305.8-81.9c0,6.6-5.4,12-12,12h-173.3c-6.6,0-12-5.4-12-12v-122.9c0-6.6,5.4-12,12-12h173.3
	c6.6,0,12,5.4,12,12V-81.9z"/>
<path class="st0" d="M2703.3-682c0,3-4,5.4-8.9,5.4l0,0c-4.9,0-8.9-2.4-8.9-5.4v-32c0-3,4-5.4,8.9-5.4l0,0c4.9,0,8.9,2.4,8.9,5.4
	V-682z"/>
<path class="st0" d="M2940-681.9c0,3-4,5.4-8.9,5.4l0,0c-4.9,0-8.9-2.4-8.9-5.4v-32c0-3,4-5.4,8.9-5.4l0,0c4.9,0,8.9,2.4,8.9,5.4
	V-681.9z"/>
<g>
	<path class="st0" d="M2694.3-676.6c3.8,0,6.6-1.9,6.6-3.6V-698h-13.2v17.7C2687.7-678.5,2690.5-676.6,2694.3-676.6z"/>
	<path class="st0" d="M2953.5-698h-11.1v17.8c0,4.7-4.9,8.4-11.3,8.4c-6.3,0-11.3-3.7-11.3-8.4V-698h-214.4v17.7
		c0,4.7-4.9,8.4-11.3,8.4c-6.3,0-11.3-3.7-11.3-8.4V-698h-11.1c-7.7,0-14,6.4-14,14.4v289.5c0,7.9,6.3,14.4,14,14.4h281.6
		c7.7,0,14-6.4,14-14.4v-289.5C2967.5-691.6,2961.2-698,2953.5-698z M2959.3-412.8c0,8.3-6.5,15.1-14.6,15.1h-264.1
		c-8,0-14.6-6.8-14.6-15.1v-236c0-8.3,6.5-15.1,14.6-15.1h264.1c8,0,14.6,6.8,14.6,15.1V-412.8z"/>
	<path class="st0" d="M2931.2-676.6c3.8,0,6.6-1.9,6.6-3.6V-698h-13.2v17.8C2924.6-678.5,2927.4-676.6,2931.2-676.6z"/>
</g>
<g>
	<path class="st0" d="M2123.2-972.2v11.9c0,4-7,7.3-15.6,7.3c-8.6,0-15.6-3.3-15.6-7.3v-11.9h-152.5v11.9c0,4-7,7.3-15.6,7.3
		s-15.6-3.3-15.6-7.3v-11.9c-26.4,0-47.8,21.4-47.8,47.9v214.7c0,26.4,21.4,47.9,47.9,47.9h214.7c26.4,0,47.9-21.4,47.9-47.9v-214.7
		C2170.9-950.7,2149.6-972.1,2123.2-972.2z"/>
	<path class="st0" d="M2107.6-958.2c5.7,0,10.3-2.1,10.3-4.8v-28.3c0-2.6-4.6-4.8-10.3-4.8c-5.7,0-10.3,2.1-10.3,4.8v28.3
		C2097.3-960.4,2101.9-958.2,2107.6-958.2z"/>
	<path class="st0" d="M1923.9-958.2c5.7,0,10.3-2.1,10.3-4.8v-28.3c0-2.6-4.6-4.8-10.3-4.8s-10.3,2.1-10.3,4.8v28.3
		C1913.6-960.4,1918.2-958.2,1923.9-958.2z"/>
</g>
<g>
	<path class="st0" d="M2032.3-157.8v11.9c0,4-7,7.3-15.6,7.3c-8.6,0,21.6,8.5,21.6,4.5L2032.3-157.8l-214.9,0l-4.6,15.1
		c0,4,28.8,4,20.2,4s-15.6-3.3-15.6-7.3v-11.9c-26.4,0-47.8,21.4-47.8,47.9v214.7c0,26.4,21.4,47.9,47.9,47.9h214.7
		c26.4,0,47.9-21.4,47.9-47.9V-110C2080-136.4,2058.6-157.7,2032.3-157.8z"/>
</g>
<image style="overflow:visible;enable-background:new    ;" width="501" height="181" xlink:href="92097F3F.jpeg"  transform="matrix(0.7458 0 0 0.7458 1256.3225 -183.9385)">
</image>
<g>
	<g>
		<path class="st0" d="M2954.6-309c5.7,0,10.3-2.1,10.3-4.8v-28.3c0-2.6-4.6-4.8-10.3-4.8c-5.7,0-10.3,2.1-10.3,4.8v28.3
			C2944.3-311.2,2948.9-309,2954.6-309z"/>
		<path class="st0" d="M2770.9-309c5.7,0,10.3-2.1,10.3-4.8v-28.3c0-2.6-4.6-4.8-10.3-4.8c-5.7,0-10.3,2.1-10.3,4.8v28.3
			C2760.6-311.2,2765.2-309,2770.9-309z"/>
	</g>
	<path class="st0" d="M2970.2-323v11.9c0,4-7,7.3-15.6,7.3c-8.6,0-15.6-3.3-15.6-7.3V-323h-152.5v11.9c0,4-7,7.3-15.6,7.3
		s-15.6-3.3-15.6-7.3V-323c-26.4,0-47.8,21.4-47.8,47.9v214.7c0,26.4,21.4,47.9,47.9,47.9h214.7c26.4,0,47.9-21.4,47.9-47.9v-214.7
		C3017.9-301.5,2996.6-322.9,2970.2-323z M2986.9-177.5c0,6-5.5,10.9-12.2,10.9h-223.4c-6.8,0-12.2-4.9-12.2-10.9V-271
		c0-6,5.5-10.9,12.2-10.9h223.4c6.8,0,12.2,4.9,12.2,10.9V-177.5z"/>
</g>
<g>
	<path class="st0" d="M2146.7-568.5v11.9c0,4-7,7.3-15.6,7.3s-15.6-3.3-15.6-7.3v-11.9H1963v11.9c0,4-7,7.3-15.6,7.3
		s-15.6-3.3-15.6-7.3v-11.9c-26.4,0-47.8,21.4-47.8,47.9V-306c0,26.4,21.4,47.9,47.9,47.9h214.7c26.4,0,47.9-21.4,47.9-47.9v-214.7
		C2194.4-547.1,2173.1-568.4,2146.7-568.5z"/>
	<path class="st0" d="M2131.1-554.5c5.7,0,10.3-2.1,10.3-4.8v-28.3c0-2.6-4.6-4.8-10.3-4.8c-5.7,0-10.3,2.1-10.3,4.8v28.3
		C2120.8-556.7,2125.4-554.5,2131.1-554.5z"/>
	<path class="st0" d="M1947.4-554.5c5.7,0,10.3-2.1,10.3-4.8v-28.3c0-2.6-4.6-4.8-10.3-4.8s-10.3,2.1-10.3,4.8v28.3
		C1937.1-556.7,1941.7-554.5,1947.4-554.5z"/>
</g>
<rect x="1937.1" y="-527.9" class="st0" width="209.3" height="244.4"/>
<g>
	<path class="st0" d="M2528.9-1136c5.7,0,10.3-2.1,10.3-4.8v-28.3c0-2.6-4.6-4.8-10.3-4.8c-5.7,0-10.3,2.1-10.3,4.8v28.3
		C2518.6-1138.2,2523.2-1136,2528.9-1136z"/>
	<path class="st0" d="M2345.2-1136c5.7,0,10.3-2.1,10.3-4.8v-28.3c0-2.6-4.6-4.8-10.3-4.8c-5.7,0-10.3,2.1-10.3,4.8v28.3
		C2334.9-1138.2,2339.5-1136,2345.2-1136z"/>
</g>
<path class="st0" d="M2544.5-1150v11.9c0,4-7,7.3-15.6,7.3c-8.6,0-15.6-3.3-15.6-7.3v-11.9h-152.5v11.9c0,4-7,7.3-15.6,7.3
	s-15.6-3.3-15.6-7.3v-11.9c-26.4,0-47.8,21.4-47.8,47.9v214.7c0,26.4,21.4,47.9,47.9,47.9h214.7c26.4,0,47.9-21.4,47.9-47.9v-214.7
	C2592.2-1128.5,2570.8-1149.9,2544.5-1150z M2557.3-884h-239.5v-192.4h239.5V-884z"/>
<g>
	<rect x="2354.4" y="-1045.2" class="st0" width="32.3" height="32.3"/>
	<rect x="2354.4" y="-995.7" class="st0" width="32.3" height="32.3"/>
	<rect x="2354.4" y="-946.2" class="st0" width="32.3" height="32.3"/>
</g>
<g>
	<rect x="2421.6" y="-1045.2" class="st0" width="32.3" height="32.3"/>
	<rect x="2421.6" y="-995.7" class="st0" width="32.3" height="32.3"/>
	<rect x="2421.6" y="-946.2" class="st0" width="32.3" height="32.3"/>
</g>
<g>
	<rect x="2487.8" y="-1045.2" class="st0" width="32.3" height="32.3"/>
	<rect x="2487.8" y="-995.7" class="st0" width="32.3" height="32.3"/>
	<rect x="2487.8" y="-946.2" class="st0" width="32.3" height="32.3"/>
</g>
<g>
	<path class="st2" d="M2016.9-143.8c5.7,0,10.3-2.1,10.3-4.8V-177c0-2.6-4.6-4.8-10.3-4.8c-5.7,0-10.3,2.1-10.3,4.8v28.3
		C2006.6-146,2011.2-143.8,2016.9-143.8z"/>
	<path class="st2" d="M1833.2-143.8c5.7,0,10.3-2.1,10.3-4.8V-177c0-2.6-4.6-4.8-10.3-4.8s-10.3,2.1-10.3,4.8v28.3
		C1822.9-146,1827.5-143.8,1833.2-143.8z"/>
</g>
<path class="st2" d="M910.9-10.2v28.3c0,2.6,4.6,4.8,10.3,4.8c5.7,0,10.3-2.1,10.3-4.8v-28.3"/>
<path class="st2" d="M727.2-10.2v28.3c0,2.6,4.6,4.8,10.3,4.8c5.7,0,10.3-2.1,10.3-4.8v-28.3"/>
<path class="st2" d="M936.7,9v11.9c0,4-7,7.3-15.6,7.3c-8.6,0-15.6-3.3-15.6-7.3V9H753v11.9c0,4-7,7.3-15.6,7.3s-15.6-3.3-15.6-7.3
	V9C695.4,9,674,30.4,674,56.8v214.7c0,26.4,21.4,47.9,47.9,47.9h214.7c26.4,0,47.9-21.4,47.9-47.9V56.8C984.5,30.4,963.1,9,936.7,9z
	 M949.5,275H710V82.6h239.5V275z"/>
<g>
	<rect x="746.7" y="113.8" class="st2" width="32.3" height="32.3"/>
	<rect x="746.7" y="163.3" class="st2" width="32.3" height="32.3"/>
	<rect x="746.7" y="212.8" class="st2" width="32.3" height="32.3"/>
</g>
<g>
	<rect x="813.9" y="113.8" class="st2" width="32.3" height="32.3"/>
	<rect x="813.9" y="163.3" class="st2" width="32.3" height="32.3"/>
	<rect x="813.9" y="212.8" class="st2" width="32.3" height="32.3"/>
</g>
<g>
	<rect x="880" y="113.8" class="st2" width="32.3" height="32.3"/>
	<rect x="880" y="163.3" class="st2" width="32.3" height="32.3"/>
	<rect x="880" y="212.8" class="st2" width="32.3" height="32.3"/>
</g>
<path class="st3" d="M258.1,32.1v11.4c0,3.8-6.7,7-14.9,7c-8.2,0-14.9-3.1-14.9-7V32.1H82.3v11.4c0,3.8-6.7,7-14.9,7
	s-14.9-3.1-14.9-7V32.1c-25.3,0-45.7,20.5-45.7,45.8v205.5c0,25.3,20.5,45.8,45.8,45.8h205.5c25.3,0,45.8-20.5,45.8-45.8V77.9
	C303.7,52.6,283.3,32.2,258.1,32.1z"/>
<g>
	<path class="st2" d="M1838.5-88.1c3.6,0,0.3,0-4.5-0.3C1835.5-88.2,1837-88.1,1838.5-88.1z"/>
	<path class="st2" d="M2032.5-157.8v11.9c0,4-7,7.3-15.6,7.3c-8.6,0-15.6-3.3-15.6-7.3v-11.9h-152.5v11.9c0,4-7,7.3-15.6,7.3
		s-15.6-3.3-15.6-7.3v-11.9c-26.4,0-47.8,21.4-47.8,47.9v214.7c0,26.4,21.4,47.9,47.9,47.9h214.7c26.4,0,47.9-21.4,47.9-47.9V-110
		C2080.2-136.4,2058.9-157.7,2032.5-157.8z M2072,104.3c0,20.9-20.3,37.8-45.2,37.8h-203c-25,0-45.2-16.9-45.2-37.8V-65.4
		c0-20.9,20.2-37.8,45.2-37.8v0h203.1l0,0c24.9,0.1,45.1,17,45.1,37.8L2072,104.3L2072,104.3z"/>
</g>
<g>
	<g>
		<rect x="1834.4" y="329.5" class="st2" width="36.1" height="36.1"/>
		<rect x="1834.4" y="384.6" class="st2" width="36.1" height="36.1"/>
		<rect x="1834.4" y="439.8" class="st2" width="36.1" height="36.1"/>
	</g>
	<g>
		<rect x="1909.3" y="329.5" class="st2" width="36.1" height="36.1"/>
		<rect x="1909.3" y="384.6" class="st2" width="36.1" height="36.1"/>
		<rect x="1909.3" y="439.8" class="st2" width="36.1" height="36.1"/>
	</g>
	<g>
		<rect x="1983.1" y="329.5" class="st2" width="36.1" height="36.1"/>
		<rect x="1983.1" y="384.6" class="st2" width="36.1" height="36.1"/>
		<rect x="1983.1" y="439.8" class="st2" width="36.1" height="36.1"/>
	</g>
</g>
<path class="st4" d="M73.2,34.8c0,3-2.4,5.4-5.4,5.4h-1.7c-3,0-5.4-2.4-5.4-5.4V10.5c0-3,2.4-5.4,5.4-5.4h1.7c3,0,5.4,2.4,5.4,5.4
	V34.8z"/>
<path class="st4" d="M249.3,34.8c0,3-2.4,5.4-5.4,5.4h-1.7c-3,0-5.4-2.4-5.4-5.4V10.5c0-3,2.4-5.4,5.4-5.4h1.7c3,0,5.4,2.4,5.4,5.4
	V34.8z"/>
<g>
	<g>
		<rect x="75.7" y="132.4" class="st4" width="30.9" height="30.9"/>
		<rect x="75.7" y="179.7" class="st4" width="30.9" height="30.9"/>
		<rect x="75.7" y="227.1" class="st4" width="30.9" height="30.9"/>
	</g>
	<g>
		<rect x="140" y="132.4" class="st4" width="30.9" height="30.9"/>
		<rect x="140" y="179.7" class="st4" width="30.9" height="30.9"/>
		<rect x="140" y="227.1" class="st4" width="30.9" height="30.9"/>
	</g>
	<g>
		<rect x="203.3" y="132.4" class="st4" width="30.9" height="30.9"/>
		<rect x="203.3" y="179.7" class="st4" width="30.9" height="30.9"/>
		<rect x="203.3" y="227.1" class="st4" width="30.9" height="30.9"/>
	</g>
	<path class="st3" d="M40.6,115c0-6.3,5.1-11.5,11.5-11.5h206.2c6.3,0,11.5,5.1,11.5,11.5v158.7c0,6.3-5.1,11.5-11.5,11.5H52.1
		c-6.3,0-11.5-5.1-11.5-11.5C40.6,273.7,40.6,115,40.6,115z"/>
</g>
</svg>
