<?xml version="1.0" encoding="utf-8"?>
<!-- Generator: Adobe Illustrator 14.0.0, SVG Export Plug-In . SVG Version: 6.00 Build 43363)  -->
<!DOCTYPE svg PUBLIC "-//W3C//DTD SVG 1.1//EN" "http://www.w3.org/Graphics/SVG/1.1/DTD/svg11.dtd">
<svg version="1.1" id="Layer_1" xmlns="http://www.w3.org/2000/svg" xmlns:xlink="http://www.w3.org/1999/xlink" x="0px" y="0px"
	 width="299.828px" height="52.783px" viewBox="0 0 299.828 52.783" enable-background="new 0 0 299.828 52.783"
	 xml:space="preserve">
<path d="M238.486,35.281c0.719,0,1.32,0.244,1.801,0.727c0.48,0.484,0.721,1.09,0.721,1.816c0,0.729-0.24,1.336-0.721,1.816
	c-0.48,0.486-1.082,0.73-1.801,0.73c-0.72,0-1.322-0.244-1.801-0.73c-0.485-0.48-0.723-1.088-0.723-1.816
	c0-0.727,0.237-1.332,0.723-1.816C237.164,35.525,237.766,35.281,238.486,35.281"/>
<path d="M21.754,22.591H10.613L4.97,37.255c-0.395,1.055-0.59,1.707-0.59,1.953c0,0.576,0.418,0.867,1.26,0.867v0.395H0v-0.395
	c0.755,0,1.389-0.189,1.906-0.566c0.515-0.379,1.082-1.357,1.698-2.938L17.271,1.058h0.687l13.493,34.293
	c0,0.176,0.346,1.008,1.032,2.496c0.693,1.484,1.74,2.229,3.154,2.229v0.395h-8.814v-0.395c0.803,0,1.206-0.324,1.206-0.977
	c0-0.438-0.197-1.141-0.592-2.107l-0.177-0.34c-0.036-0.18-0.062-0.266-0.078-0.266L21.754,22.591z M11.024,21.521h10.251
	L16.123,8.279L11.024,21.521z"/>
<path d="M38.317,2.067V1.675h10.714c2.717,0,4.68,0.063,5.897,0.184c1.209,0.121,2.456,0.533,3.728,1.227
	c1.271,0.694,2.232,1.636,2.882,2.82c0.648,1.188,0.976,2.642,0.976,4.361c0,1.97-0.579,3.846-1.736,5.629
	c-1.154,1.784-2.787,3.292-4.892,4.521l2.667,4.214c0.579,1.055,2.121,3.363,4.629,6.932c2.506,3.564,4.442,5.732,5.802,6.507
	c1.367,0.775,2.688,1.162,3.968,1.162c1.263,0,2.714-0.486,4.35-1.461l0.155,0.523c-2.045,1.715-4.707,2.568-7.979,2.568
	c-2.185,0-4.06-0.664-5.628-1.994c-1.566-1.328-4.304-4.979-8.205-10.955l-0.051-0.104l-3.801-6.007l-3.362,0.106h-3.055v14.827
	c0,1.191,0.153,2.047,0.46,2.564c0.305,0.516,1.047,0.773,2.224,0.773v0.395h-9.745v-0.395c1.196-0.051,1.942-0.314,2.238-0.785
	c0.298-0.475,0.442-1.443,0.442-2.898V5.57c0-1.001-0.126-1.83-0.377-2.487C40.366,2.425,39.598,2.088,38.317,2.067 M45.377,2.744
	v18.159h3.954c3.111,0,5.423-0.753,6.927-2.26c1.505-1.506,2.259-3.486,2.259-5.939c0-2.383-0.74-4.638-2.221-6.767
	c-1.48-2.13-4.084-3.193-7.813-3.193H45.377z"/>
<path d="M96.277,40.431c0.018,0.053,0.276,0.248,0.769,0.582l3.979,2.898c2.174,1.58,4.187,2.863,6.043,3.854
	c1.858,0.986,3.71,1.75,5.559,2.295c1.847,0.541,3.686,0.813,5.52,0.813c0.702,0,1.685-0.09,2.952-0.268l0.051,0.32
	c-1.08,0.529-2.362,0.973-3.85,1.328c-1.49,0.352-2.61,0.529-3.362,0.529c-2.739,0-6.324-1.035-10.757-3.105
	c-4.43-2.068-8.604-4.914-12.521-8.533c-5.661,0-10.07-1.838-13.223-5.514c-3.153-3.675-4.731-7.814-4.731-12.416
	c0-3.508,0.814-6.977,2.448-10.407c1.631-3.428,4.048-6.256,7.253-8.477C85.609,2.11,89.427,1,93.853,1
	c5.315,0,9.65,1.671,13.007,5.012c3.362,3.342,5.039,7.499,5.039,12.47c0,4.974-1.325,9.554-3.983,13.739
	C105.261,36.408,101.385,39.146,96.277,40.431 M93.715,39.064c2.595,0,5.154-0.717,7.683-2.15c2.528-1.432,4.518-3.408,5.967-5.921
	c1.452-2.516,2.181-5.1,2.181-7.757c0-3.851-1.013-7.337-3.037-10.459c-2.024-3.122-4.591-5.519-7.7-7.189
	c-3.105-1.669-5.922-2.506-8.45-2.506c-3.741,0-7.135,1.451-10.184,4.354c-3.047,2.903-4.571,6.506-4.571,10.813
	c0,5.472,1.858,10.309,5.568,14.512C84.89,36.962,89.068,39.064,93.715,39.064"/>
<path d="M149.138,40.468h-7.172v-5.959c-3.639,4.162-7.985,6.242-13.029,6.242c-3.744,0-6.711-1.082-8.91-3.242
	c-2.2-2.16-3.294-5.146-3.294-8.958V5.31c0-1.405-0.162-2.296-0.495-2.676c-0.328-0.376-1.091-0.566-2.299-0.566V1.675h10.072v0.393
	c-1.059,0-1.811,0.174-2.246,0.517c-0.435,0.341-0.656,1.151-0.656,2.429v21.272c0,4.453,1.02,7.63,3.05,9.533
	c2.033,1.902,4.349,2.854,6.943,2.854c4.081,0,7.704-1.855,10.864-5.564V6.816c0-2.305-0.198-3.67-0.587-4.101
	c-0.393-0.433-1.01-0.648-1.849-0.648h-0.355V1.675h9.962v0.393c-1.23,0.071-2.003,0.283-2.315,0.634
	c-0.319,0.35-0.479,1.017-0.479,2.001v31.584c0,1.244,0.061,2.063,0.181,2.445c0.122,0.389,0.364,0.707,0.731,0.963
	c0.37,0.254,0.998,0.379,1.882,0.379V40.468z"/>
<path d="M163.507,1.675v0.393c-0.499-0.052-1.051,0.028-1.656,0.238c-0.609,0.211-0.969,0.519-1.082,0.921
	c-0.109,0.404-0.164,1.359-0.164,2.869v29.769c0,1.613,0.063,2.602,0.193,2.963c0.129,0.357,0.377,0.656,0.742,0.893
	c0.367,0.238,1.025,0.355,1.967,0.355v0.393H153.38v-0.393c1.271,0,2.068-0.252,2.379-0.75s0.466-1.635,0.466-3.41V6.437
	c0-1.843-0.173-3.048-0.515-3.618c-0.346-0.568-1.125-0.818-2.33-0.751V1.675H163.507z"/>
<path d="M184.109,41.146h-0.486L170.156,6.917c-0.953-2.407-1.738-3.815-2.352-4.229c-0.616-0.411-1.248-0.62-1.896-0.62V1.675
	h8.707v0.393c-0.768-0.05-1.148,0.256-1.148,0.923c0,0.262,0.052,0.544,0.152,0.84l11.756,29.875l11.604-29.846
	c0.152-0.403,0.232-0.728,0.232-0.975c0-0.595-0.453-0.866-1.356-0.816V1.675h5.69v0.393c-0.396,0-0.811,0.058-1.25,0.172
	c-0.438,0.115-0.891,0.566-1.354,1.356c-0.462,0.791-0.7,1.214-0.72,1.267L184.109,41.146z"/>
<path d="M218.58,1c5.296,0,9.629,1.662,12.996,4.985c3.366,3.324,5.049,7.471,5.049,12.443c0,6.399-1.949,11.786-5.847,16.159
	c-3.896,4.371-9.063,6.557-15.507,6.557c-5.229,0-9.51-1.764-12.844-5.287c-3.332-3.529-4.997-7.758-4.997-12.696
	c0-3.331,0.804-6.752,2.409-10.26c1.606-3.508,4.021-6.37,7.254-8.581C210.323,2.106,214.152,1,218.58,1 M218.44,39.064
	c2.595,0,5.157-0.717,7.683-2.154c2.531-1.436,4.523-3.41,5.97-5.929c1.453-2.519,2.177-5.108,2.177-7.768
	c0-3.771-0.977-7.196-2.932-10.28c-1.955-3.079-4.49-5.492-7.607-7.236c-3.117-1.743-6-2.615-8.646-2.615
	c-3.741,0-7.134,1.453-10.182,4.357c-3.047,2.908-4.573,6.516-4.573,10.834c0,5.515,1.863,10.356,5.586,14.53
	C209.634,36.978,213.814,39.064,218.44,39.064"/>
<path d="M244.654,2.098V1.677h10.779c3.83,0,6.613,0.439,8.352,1.318c1.734,0.884,3.002,1.979,3.798,3.294
	c0.796,1.31,1.192,3.041,1.192,5.19c0,3.294-1.104,5.772-3.32,7.425c-2.208,1.658-5.209,2.448-8.996,2.381V20.86
	c2.402,0,4.357-0.751,5.855-2.256c1.504-1.51,2.258-3.488,2.258-5.941c0-1.908-0.369-3.604-1.09-5.085
	c-0.726-1.478-1.74-2.606-3.055-3.376c-1.311-0.771-3.316-1.154-6.004-1.154h-2.686v33.114c0,1.873,0.199,2.988,0.601,3.348
	c0.396,0.357,1.155,0.539,2.272,0.539v0.42h-9.957v-0.42c1.779,0,2.671-0.834,2.671-2.496V5.488c0-1.366-0.173-2.273-0.511-2.719
	C246.468,2.321,245.75,2.098,244.654,2.098"/>
<path d="M299.828,1.677l-1.684,4.491h-0.401c0.063-0.275,0.099-0.646,0.099-1.114c0-0.395-0.139-0.648-0.413-0.76
	c-0.272-0.112-0.712-0.168-1.31-0.168h-9.607v32.116c0,1.32,0.098,2.227,0.299,2.715c0.197,0.484,0.467,0.787,0.812,0.914
	c0.348,0.127,0.903,0.189,1.673,0.189v0.408h-9.844V40.06c1.234-0.082,2.004-0.33,2.318-0.74c0.307-0.406,0.467-1.252,0.467-2.545
	V4.126h-9.111c-0.92,0-1.521,0.056-1.801,0.168c-0.278,0.111-0.418,0.393-0.418,0.84c0,0.226,0.063,0.568,0.198,1.034h-0.397
	l-1.791-4.491h0.396c0.299,0.575,0.598,0.924,0.889,1.045c0.287,0.119,0.916,0.179,1.877,0.179h24.342
	c0.96,0,1.656-0.06,2.077-0.179c0.423-0.121,0.735-0.47,0.937-1.045H299.828z"/>
</svg>
